<svg id="a1d7c797-67be-4bb8-9e86-6a01d297f8f2" data-name="Isolation Mode" xmlns="http://www.w3.org/2000/svg" viewBox="0 0 88.19 88.49"><title>logo</title><path d="M394.13,281l-1.92-1.28-36.3-24.2-4.41-2.94-.44-.29-.45.29-4.41,2.94-36.3,24.2L308,281l-1,.68v59.09h2.94V312.4h11.27v28.41h2.94V312.4h11.27v28.41h2.94V309.46H324.11V298.19H378v11.27H363.79v31.35h2.94V312.4H378v28.41h2.94V312.4h11.27v28.41h2.94V281.72Zm-13.19,28.42V295.25H321.17v14.21H309.9V283.3l3.39-2.26,37.77-25.18L388.83,281l3.38,2.26v26.16Z" transform="translate(-306.96 -252.33)" fill="#cb8f2b"/></svg>