<svg id="ee29bf99-8f3e-4ac4-8cd6-5df3d828209c" data-name="Isolation Mode" xmlns="http://www.w3.org/2000/svg" viewBox="0 0 198.42 154.63"><title>logo</title><polygon points="3.69 113.87 3.69 120.23 13.63 120.23 13.63 123.54 3.69 123.54 3.69 132.58 0 132.58 0 110.53 14.7 110.53 14.67 113.87 3.69 113.87" fill="#cb8f2b"/><path d="M289.32,375.68c0,5.73-3.6,9.23-9.54,9.23s-9.56-3.5-9.56-9.23V362.86h3.7v12.82c0,3.69,2.29,5.91,5.9,5.91s5.8-2.19,5.8-5.91V362.86h3.7Z" transform="translate(-251.84 -252.33)" fill="#cb8f2b"/><path d="M304.51,378.23c-.32,0-.67,0-1,0h-5.28v6.65h-3.75V362.86h9c5.68,0,9,2.74,9,7.53,0,3.52-1.65,6-4.61,7.15l5,7.37h-4.26Zm-1-3.31c3.43,0,5.4-1.45,5.4-4.44s-2-4.28-5.4-4.28h-5.28v8.72Z" transform="translate(-251.84 -252.33)" fill="#cb8f2b"/><polygon points="81.6 132.58 69.86 116.77 69.86 132.58 66.14 132.58 66.14 110.53 69.79 110.53 81.6 126.38 81.6 110.53 85.25 110.53 85.25 132.58 81.6 132.58" fill="#cb8f2b"/><rect x="91.86" y="110.53" width="3.67" height="22.05" fill="#cb8f2b"/><polygon points="110.61 113.87 110.61 132.58 106.89 132.58 106.89 113.87 99.95 113.87 99.95 110.53 117.58 110.53 117.58 113.87 110.61 113.87" fill="#cb8f2b"/><path d="M393.68,373.85a11.39,11.39,0,0,1-22.78,0c0-6.26,5-11,11.39-11s11.39,4.76,11.39,11m-19.1,0a7.76,7.76,0,0,0,7.74,7.76,7.73,7.73,0,1,0-7.74-7.76" transform="translate(-251.84 -252.33)" fill="#cb8f2b"/><polygon points="164.64 132.58 159.49 115.39 154.28 132.58 150.5 132.58 143.31 110.53 147.24 110.53 152.51 128.45 157.75 110.56 161.35 110.53 166.62 128.45 171.86 110.53 175.64 110.53 168.39 132.58 164.64 132.58" fill="#cb8f2b"/><polygon points="194.77 132.58 183.03 116.77 183.03 132.58 179.32 132.58 179.32 110.53 182.97 110.53 194.77 126.38 194.77 110.53 198.43 110.53 198.43 132.58 194.77 132.58" fill="#cb8f2b"/><polygon points="52.94 154.59 52.94 151.38 48.59 151.38 48.59 154.59 47.77 154.59 47.77 147.31 48.59 147.31 48.59 150.59 52.94 150.59 52.94 147.31 53.76 147.31 53.76 154.59 52.94 154.59" fill="#cb8f2b"/><path d="M314.91,403.27a3.78,3.78,0,1,1-3.77-3.65,3.71,3.71,0,0,1,3.77,3.65m-6.72,0a2.94,2.94,0,0,0,5.87,0,2.94,2.94,0,0,0-5.87,0" transform="translate(-251.84 -252.33)" fill="#cb8f2b"/><polygon points="71.35 154.59 71.34 148.59 68.71 153.82 68.22 153.82 65.6 148.59 65.6 154.59 64.82 154.59 64.82 147.31 65.84 147.31 68.48 152.55 71.1 147.31 72.11 147.31 72.11 154.59 71.35 154.59" fill="#cb8f2b"/><polygon points="75.38 148.11 75.38 150.5 79.02 150.5 79.02 151.3 75.38 151.3 75.38 153.8 79.58 153.8 79.58 154.59 74.56 154.59 74.56 147.31 79.45 147.31 79.45 148.11 75.38 148.11" fill="#cb8f2b"/><polygon points="85.42 148.11 85.42 150.67 88.78 150.67 88.78 151.47 85.42 151.47 85.42 154.59 84.59 154.59 84.59 147.31 89.17 147.31 89.17 148.11 85.42 148.11" fill="#cb8f2b"/><path d="M348.37,403.92a3,3,0,1,1-6.05,0v-4.28h.83v4.28a2.2,2.2,0,1,0,4.4,0v-4.28h.82Z" transform="translate(-251.84 -252.33)" fill="#cb8f2b"/><path d="M353.87,404.59l-.48,0h-1.92v2.29h-.82v-7.27h2.74c1.8,0,2.84.89,2.84,2.44a2.28,2.28,0,0,1-1.62,2.36l1.69,2.47h-.94Zm-.48-.78c1.3,0,2-.58,2-1.71s-.74-1.66-2-1.66h-1.92v3.37Z" transform="translate(-251.84 -252.33)" fill="#cb8f2b"/><polygon points="111.65 154.59 107.33 148.74 107.33 154.59 106.5 154.59 106.5 147.31 107.36 147.31 111.68 153.16 111.68 147.31 112.49 147.31 112.49 154.59 111.65 154.59" fill="#cb8f2b"/><rect x="114.94" y="147.31" width="0.82" height="7.28" fill="#cb8f2b"/><path d="M374.47,400.28l-.35.78a3.64,3.64,0,0,0-2-.61c-.93,0-1.54.35-1.54,1,0,1.87,4.06.9,4,3.54,0,1.22-1.06,2-2.61,2a4.06,4.06,0,0,1-2.75-1.11l.37-.75a3.54,3.54,0,0,0,2.4,1c1,0,1.68-.42,1.68-1.12,0-1.91-4-.9-4-3.5,0-1.15,1-1.89,2.49-1.89a4.25,4.25,0,0,1,2.28.68" transform="translate(-251.84 -252.33)" fill="#cb8f2b"/><polygon points="129.92 154.59 129.92 151.38 125.57 151.38 125.57 154.59 124.75 154.59 124.75 147.31 125.57 147.31 125.57 150.59 129.92 150.59 129.92 147.31 130.74 147.31 130.74 154.59 129.92 154.59" fill="#cb8f2b"/><rect x="133.18" y="147.31" width="0.82" height="7.28" fill="#cb8f2b"/><polygon points="141.59 154.59 137.27 148.74 137.27 154.59 136.44 154.59 136.44 147.31 137.3 147.31 141.62 153.16 141.62 147.31 142.43 147.31 142.43 154.59 141.59 154.59" fill="#cb8f2b"/><path d="M402.48,403.36V406a4.44,4.44,0,0,1-2.68,1,3.67,3.67,0,1,1,0-7.34,4.08,4.08,0,0,1,2.66,1l-.47.63a3.31,3.31,0,0,0-2.19-.85,2.89,2.89,0,1,0,0,5.78,3.41,3.41,0,0,0,1.9-.62v-2.19Z" transform="translate(-251.84 -252.33)" fill="#cb8f2b"/><path d="M394.13,281l-1.92-1.28-36.3-24.2-4.41-2.94-.44-.29-.45.29-4.41,2.94-36.3,24.2L308,281l-1,.68v59.09h2.94V312.4h11.27v28.41h2.94V312.4h11.27v28.41h2.94V309.46H324.11V298.19H378v11.27H363.79v31.35h2.94V312.4H378v28.41h2.94V312.4h11.27v28.41h2.94V281.72Zm-13.19,28.42V295.25H321.17v14.21H309.9V283.3l3.39-2.26,37.77-25.18L388.83,281l3.38,2.26v26.16Z" transform="translate(-251.84 -252.33)" fill="#cb8f2b"/></svg>