<svg id="a1d62192-2ff9-489c-978e-3ecacf37e953" data-name="Capa 1" xmlns="http://www.w3.org/2000/svg" viewBox="0 0 512.01 512"><title>loupe</title><path d="M514.75,483.59,369.15,338a201.7,201.7,0,0,0,45.18-127.32C414.33,98.93,323.41,8,211.67,8S9,98.93,9,210.67,99.92,413.34,211.67,413.34A201.62,201.62,0,0,0,339,368.15l145.6,145.61a21.33,21.33,0,0,0,30.17-30.17ZM211.67,370.67c-88.24,0-160-71.76-160-160s71.76-160,160-160,160,71.77,160,160S299.9,370.67,211.67,370.67Z" transform="translate(-9 -8.01)"/></svg>